<svg 
 xmlns="http://www.w3.org/2000/svg"
 xmlns:xlink="http://www.w3.org/1999/xlink"
 width="14px" height="16px">
<path fill-rule="evenodd"  fill="rgb(28, 191, 229)"
 d="M11.375,16.000 L2.625,16.000 C1.175,16.000 0.000,14.926 0.000,13.600 L0.000,2.400 C0.000,1.074 1.175,-0.000 2.625,-0.000 L11.375,-0.000 C12.824,-0.000 14.000,1.074 14.000,2.400 L14.000,13.600 C14.000,14.926 12.824,16.000 11.375,16.000 ZM12.250,2.400 C12.250,1.958 11.858,1.600 11.375,1.600 L2.625,1.600 C2.142,1.600 1.750,1.958 1.750,2.400 L1.750,13.600 C1.750,14.042 2.142,14.400 2.625,14.400 L11.375,14.400 C11.858,14.400 12.250,14.042 12.250,13.600 L12.250,2.400 ZM9.187,4.800 L4.812,4.800 C4.330,4.800 3.937,4.442 3.937,4.000 C3.937,3.558 4.330,3.200 4.812,3.200 L9.187,3.200 C9.671,3.200 10.062,3.558 10.062,4.000 C10.062,4.442 9.671,4.800 9.187,4.800 ZM7.000,10.400 C7.725,10.400 8.313,10.937 8.313,11.600 C8.313,12.263 7.725,12.800 7.000,12.800 C6.275,12.800 5.687,12.263 5.687,11.600 C5.687,10.937 6.275,10.400 7.000,10.400 Z"/>
</svg>