<svg 
 xmlns="http://www.w3.org/2000/svg"
 xmlns:xlink="http://www.w3.org/1999/xlink"
 width="12px" height="12px">
<defs>
<linearGradient id="PSgrad_0" x1="0%" x2="50%" y1="0%" y2="86.603%">
  <stop offset="0%" stop-color="rgb(255,255,255)" stop-opacity="1" />
  <stop offset="100%" stop-color="rgb(255,255,255)" stop-opacity="1" />
</linearGradient>

</defs>
<path fill-rule="evenodd"  fill="rgb(255, 255, 255)"
 d="M11.079,5.788 C10.871,4.577 10.300,3.476 9.428,2.604 C8.509,1.688 7.346,1.106 6.062,0.926 L6.192,0.000 C7.678,0.207 9.024,0.879 10.087,1.943 C11.096,2.954 11.758,4.228 12.000,5.631 L11.079,5.788 ZM8.417,3.568 C9.024,4.178 9.423,4.944 9.568,5.791 L8.646,5.948 C8.534,5.294 8.227,4.700 7.757,4.230 C7.261,3.733 6.631,3.421 5.940,3.324 L6.069,2.397 C6.964,2.522 7.775,2.927 8.417,3.568 ZM3.917,6.545 C4.556,7.329 5.278,8.026 6.139,8.568 C6.324,8.683 6.529,8.768 6.721,8.872 C6.819,8.927 6.886,8.910 6.966,8.828 C7.258,8.528 7.555,8.233 7.852,7.938 C8.242,7.551 8.731,7.551 9.123,7.938 C9.600,8.413 10.077,8.888 10.552,9.364 C10.949,9.764 10.946,10.253 10.547,10.658 C10.277,10.930 9.990,11.190 9.735,11.474 C9.363,11.892 8.899,12.026 8.364,11.997 C7.588,11.954 6.874,11.697 6.184,11.362 C4.654,10.618 3.345,9.587 2.249,8.283 C1.437,7.319 0.768,6.268 0.329,5.084 C0.114,4.512 -0.038,3.925 0.009,3.304 C0.039,2.922 0.182,2.594 0.464,2.327 C0.768,2.038 1.055,1.736 1.355,1.441 C1.745,1.056 2.234,1.056 2.626,1.438 C2.868,1.676 3.106,1.918 3.345,2.157 C3.577,2.392 3.810,2.622 4.042,2.857 C4.451,3.269 4.451,3.748 4.044,4.158 C3.752,4.452 3.463,4.747 3.165,5.034 C3.088,5.112 3.081,5.174 3.120,5.269 C3.318,5.739 3.600,6.156 3.917,6.545 Z"/>
<path fill="url(#PSgrad_0)"
 d="M11.079,5.788 C10.871,4.577 10.300,3.476 9.428,2.604 C8.509,1.688 7.346,1.106 6.062,0.926 L6.192,0.000 C7.678,0.207 9.024,0.879 10.087,1.943 C11.096,2.954 11.758,4.228 12.000,5.631 L11.079,5.788 ZM8.417,3.568 C9.024,4.178 9.423,4.944 9.568,5.791 L8.646,5.948 C8.534,5.294 8.227,4.700 7.757,4.230 C7.261,3.733 6.631,3.421 5.940,3.324 L6.069,2.397 C6.964,2.522 7.775,2.927 8.417,3.568 ZM3.917,6.545 C4.556,7.329 5.278,8.026 6.139,8.568 C6.324,8.683 6.529,8.768 6.721,8.872 C6.819,8.927 6.886,8.910 6.966,8.828 C7.258,8.528 7.555,8.233 7.852,7.938 C8.242,7.551 8.731,7.551 9.123,7.938 C9.600,8.413 10.077,8.888 10.552,9.364 C10.949,9.764 10.946,10.253 10.547,10.658 C10.277,10.930 9.990,11.190 9.735,11.474 C9.363,11.892 8.899,12.026 8.364,11.997 C7.588,11.954 6.874,11.697 6.184,11.362 C4.654,10.618 3.345,9.587 2.249,8.283 C1.437,7.319 0.768,6.268 0.329,5.084 C0.114,4.512 -0.038,3.925 0.009,3.304 C0.039,2.922 0.182,2.594 0.464,2.327 C0.768,2.038 1.055,1.736 1.355,1.441 C1.745,1.056 2.234,1.056 2.626,1.438 C2.868,1.676 3.106,1.918 3.345,2.157 C3.577,2.392 3.810,2.622 4.042,2.857 C4.451,3.269 4.451,3.748 4.044,4.158 C3.752,4.452 3.463,4.747 3.165,5.034 C3.088,5.112 3.081,5.174 3.120,5.269 C3.318,5.739 3.600,6.156 3.917,6.545 Z"/>
</svg>