<svg 
 xmlns="http://www.w3.org/2000/svg"
 xmlns:xlink="http://www.w3.org/1999/xlink"
 width="12px" height="10px">
<defs>
<linearGradient id="PSgrad_0" x1="0%" x2="50%" y1="0%" y2="86.603%">
  <stop offset="0%" stop-color="rgb(255,255,255)" stop-opacity="1" />
  <stop offset="100%" stop-color="rgb(255,255,255)" stop-opacity="1" />
</linearGradient>

</defs>
<path fill-rule="evenodd"  fill="rgb(149, 214, 211)"
 d="M11.932,0.748 C11.932,0.748 10.212,9.179 10.010,9.661 C9.808,10.142 9.049,9.895 9.049,9.895 L6.345,7.843 L4.816,9.336 L4.835,9.384 L4.723,9.426 L4.723,9.426 L4.723,9.426 L4.611,9.469 L3.181,5.878 C2.704,5.737 0.631,5.108 0.158,4.735 C-0.378,4.313 0.638,4.031 0.638,4.031 C0.638,4.031 7.840,1.250 9.770,0.513 C11.699,-0.224 11.932,0.044 11.932,0.044 C12.077,0.267 11.932,0.748 11.932,0.748 ZM9.289,2.155 L3.417,5.824 L4.723,8.957 L4.723,6.611 C4.723,6.611 9.654,2.313 9.770,2.155 C9.982,1.865 9.289,2.155 9.289,2.155 Z"/>
<path fill="url(#PSgrad_0)"
 d="M11.932,0.748 C11.932,0.748 10.212,9.179 10.010,9.661 C9.808,10.142 9.049,9.895 9.049,9.895 L6.345,7.843 L4.816,9.336 L4.835,9.384 L4.723,9.426 L4.723,9.426 L4.723,9.426 L4.611,9.469 L3.181,5.878 C2.704,5.737 0.631,5.108 0.158,4.735 C-0.378,4.313 0.638,4.031 0.638,4.031 C0.638,4.031 7.840,1.250 9.770,0.513 C11.699,-0.224 11.932,0.044 11.932,0.044 C12.077,0.267 11.932,0.748 11.932,0.748 ZM9.289,2.155 L3.417,5.824 L4.723,8.957 L4.723,6.611 C4.723,6.611 9.654,2.313 9.770,2.155 C9.982,1.865 9.289,2.155 9.289,2.155 Z"/>
</svg>