<?xml version="1.0" encoding="UTF-8"?>
<svg width="25px" height="25px" viewBox="0 0 25 25" version="1.1" xmlns="http://www.w3.org/2000/svg" xmlns:xlink="http://www.w3.org/1999/xlink">
    <!-- Generator: Sketch 53.2 (72643) - https://sketchapp.com -->
    <title>eclinic</title>
    <desc>Created with Sketch.</desc>
    <g id="Page-2" stroke="none" stroke-width="1" fill="none" fill-rule="evenodd">
        <g id="eclinic" fill="#FFFFFF" fill-rule="nonzero">
            <g id="eclinic-logo">
                <path d="M5.00005952,15.000119 L5.00005952,20.000119 C7.76136905,20.000119 10.0000595,17.7614286 10.0000595,15.000119 L5.00005952,15.000119 Z" id="Fill-1"></path>
                <path d="M10,10.0000298 L10,5.00002976 L5,5.00002976 C5,7.76133929 7.23869048,10.0000298 10,10.0000298" id="Fill-3"></path>
                <path d="M14.9999405,10.0000298 L19.9999405,10.0000298 L19.9999405,5.00002976 C17.238631,5.00002976 14.9999405,7.23872024 14.9999405,10.0000298" id="Fill-5"></path>
                <path d="M-2.97619048e-05,15.000119 L4.99997024,15.000119 L4.99997024,10.000119 C2.2383631,10.000119 -2.97619048e-05,12.2385119 -2.97619048e-05,15.000119" id="Fill-7"></path>
                <path d="M10,0 L10,5 L15,5 C15,2.23839286 12.7613095,0 10,0" id="Fill-10"></path>
                <path d="M20.0000298,10.0000298 L20.0000298,15.0000298 C22.7613393,15.0000298 25.0000298,12.7613393 25.0000298,10.0000298 L20.0000298,10.0000298 Z" id="Fill-12"></path>
                <path d="M14.9999405,15.000119 L14.9999405,20.000119 L19.9999405,20.000119 C19.9999405,17.2385119 17.76125,15.000119 14.9999405,15.000119" id="Fill-14"></path>
                <path d="M14.9999405,25 L14.9999405,20 L9.99994048,20 C9.99994048,22.7616071 12.238631,25 14.9999405,25" id="Fill-16"></path>
            </g>
        </g>
    </g>
</svg>