<svg 
 xmlns="http://www.w3.org/2000/svg"
 xmlns:xlink="http://www.w3.org/1999/xlink"
 width="12px" height="16px">
<path fill-rule="evenodd"  fill="rgb(28, 191, 229)"
 d="M11.143,16.000 C10.669,16.000 10.285,15.602 10.285,15.111 C10.285,12.656 8.367,10.667 6.000,10.667 C3.633,10.667 1.714,12.656 1.714,15.111 C1.714,15.602 1.330,16.000 0.857,16.000 C0.384,16.000 -0.000,15.602 -0.000,15.111 C-0.000,11.675 2.686,8.889 6.000,8.889 C9.314,8.889 12.000,11.675 12.000,15.111 C12.000,15.602 11.617,16.000 11.143,16.000 ZM6.000,7.111 C4.106,7.111 2.572,5.519 2.572,3.556 C2.572,1.592 4.106,-0.000 6.000,-0.000 C7.894,-0.000 9.428,1.592 9.428,3.556 C9.428,5.519 7.894,7.111 6.000,7.111 ZM6.000,1.778 C5.053,1.778 4.286,2.574 4.286,3.556 C4.286,4.538 5.053,5.334 6.000,5.334 C6.947,5.334 7.714,4.538 7.714,3.556 C7.714,2.574 6.947,1.778 6.000,1.778 Z"/>
</svg>