<svg 
 xmlns="http://www.w3.org/2000/svg"
 xmlns:xlink="http://www.w3.org/1999/xlink"
 width="12px" height="12px">
<path fill-rule="evenodd"  fill="rgb(28, 191, 229)"
 d="M6.000,12.000 C2.686,12.000 0.000,9.314 0.000,6.000 C0.000,2.686 2.686,0.000 6.000,0.000 C9.314,0.000 12.000,2.686 12.000,6.000 C12.000,9.314 9.314,12.000 6.000,12.000 ZM6.000,1.200 C3.349,1.200 1.200,3.349 1.200,6.000 C1.200,8.651 3.349,10.800 6.000,10.800 C8.651,10.800 10.800,8.651 10.800,6.000 C10.800,3.349 8.651,1.200 6.000,1.200 ZM7.284,7.008 C7.223,7.158 7.104,7.277 6.954,7.338 L4.428,8.358 C4.355,8.387 4.278,8.401 4.200,8.400 C4.031,8.380 3.878,8.288 3.780,8.148 L3.750,8.148 C3.608,7.983 3.566,7.753 3.642,7.548 L4.692,4.992 C4.753,4.842 4.872,4.723 5.022,4.662 L7.548,3.642 C7.778,3.551 8.040,3.611 8.208,3.792 C8.381,3.966 8.431,4.227 8.334,4.452 L7.284,7.008 ZM5.706,5.682 L5.280,6.726 L6.294,6.318 L6.720,5.274 L5.706,5.682 Z"/>
</svg>