<svg 
 xmlns="http://www.w3.org/2000/svg"
 xmlns:xlink="http://www.w3.org/1999/xlink"
 width="12px" height="12px">
<path fill-rule="evenodd"  fill="rgb(28, 191, 229)"
 d="M6.000,12.000 C2.686,12.000 0.000,9.314 0.000,6.000 C0.000,2.686 2.686,-0.000 6.000,-0.000 C9.314,-0.000 12.000,2.686 12.000,6.000 C12.000,9.314 9.314,12.000 6.000,12.000 ZM6.000,1.200 C3.349,1.200 1.200,3.349 1.200,6.000 C1.200,8.651 3.349,10.800 6.000,10.800 C8.651,10.800 10.800,8.651 10.800,6.000 C10.800,3.349 8.651,1.200 6.000,1.200 ZM7.800,6.600 L6.600,6.600 L6.600,7.800 C6.600,8.131 6.331,8.400 6.000,8.400 C5.669,8.400 5.400,8.131 5.400,7.800 L5.400,6.600 L4.200,6.600 C3.869,6.600 3.600,6.331 3.600,6.000 C3.600,5.669 3.869,5.400 4.200,5.400 L5.400,5.400 L5.400,4.200 C5.400,3.869 5.669,3.600 6.000,3.600 C6.331,3.600 6.600,3.869 6.600,4.200 L6.600,5.400 L7.800,5.400 C8.131,5.400 8.400,5.669 8.400,6.000 C8.400,6.331 8.131,6.600 7.800,6.600 Z"/>
</svg>